<?xml version="1.0" encoding="UTF-8"?><svg id="Layer_2" xmlns="http://www.w3.org/2000/svg" viewBox="0 0 268.52 205.71"><defs><style>.cls-1{fill:#fff;}.cls-2{fill:#c93142;}</style></defs><g id="Layer_1-2"><rect class="cls-2" width="268.52" height="205.71" rx="32.27" ry="32.27"/><path class="cls-1" d="M48.08,46.52l-6.66,22.2h-6.9l-8.22-30.36h5.52l6.3,24.24,7.2-24.24h5.88l6.72,24.36,6.78-24.36h5.28l-8.7,30.36h-6.96l-6.24-22.2Z"/><path class="cls-1" d="M86.18,69.32c-9.42,0-15.72-6.9-15.72-15.78s6.48-15.66,15.72-15.66,15.42,6.72,15.42,15c0,1.02-.06,1.8-.18,2.4h-25.68c.66,5.52,4.56,9.3,10.56,9.3,4.98,0,8.04-2.04,10.14-5.28l4.08,2.46c-2.94,4.68-7.56,7.56-14.34,7.56ZM75.87,51.02h20.28c-.78-5.46-4.92-8.58-9.96-8.58-5.46,0-9.36,3.36-10.32,8.58Z"/><path class="cls-1" d="M32.79,116.7v4.02h-5.28v-41.1h5.28v14.7c2.4-2.46,6.06-4.38,10.86-4.38,8.46,0,15.42,6.9,15.42,15.66s-6.96,15.6-15.42,15.6c-4.92,0-8.58-1.98-10.86-4.5ZM53.9,105.6c0-6-4.56-10.74-10.56-10.74s-10.74,4.74-10.74,10.74,4.62,10.74,10.74,10.74,10.56-4.74,10.56-10.74Z"/><path class="cls-1" d="M83.84,116.88c-1.68,2.4-5.04,4.32-9.54,4.32-7.08,0-11.76-4.8-11.76-12.24v-18.6h5.22v17.88c0,4.98,2.82,8.1,7.5,8.1,5.16,0,8.58-3.36,8.58-8.88v-17.1h5.22v30.36h-5.22v-3.84Z"/><path class="cls-1" d="M93.27,84.9v-5.28h5.28v5.28h-5.28ZM93.27,120.72v-30.36h5.28v30.36h-5.28Z"/><path class="cls-1" d="M102.74,120.72v-41.1h5.28v41.1h-5.28Z"/><path class="cls-1" d="M137.78,116.7c-2.28,2.52-5.94,4.5-10.86,4.5-8.46,0-15.42-6.84-15.42-15.6s6.96-15.66,15.42-15.66c4.8,0,8.46,1.92,10.86,4.38v-14.7h5.28v41.1h-5.28v-4.02ZM137.96,105.6c0-6-4.68-10.74-10.74-10.74s-10.56,4.74-10.56,10.74,4.56,10.74,10.56,10.74,10.74-4.68,10.74-10.74Z"/><path class="cls-1" d="M32.79,168.7v4.02h-5.28v-41.1h5.28v14.7c2.4-2.46,6.06-4.38,10.86-4.38,8.46,0,15.42,6.9,15.42,15.66s-6.96,15.6-15.42,15.6c-4.92,0-8.58-1.98-10.86-4.5ZM53.9,157.6c0-6-4.56-10.74-10.56-10.74s-10.74,4.74-10.74,10.74,4.62,10.74,10.74,10.74,10.56-4.74,10.56-10.74Z"/><path class="cls-1" d="M77.37,147.34c-5.94,0-9.54,3.96-9.54,10.02v15.36h-5.28v-30.36h5.22v5.04c1.44-2.4,4.44-5.46,9.6-5.46v5.4Z"/><path class="cls-1" d="M80.96,136.9v-5.28h5.28v5.28h-5.28ZM80.96,172.72v-30.36h5.28v30.36h-5.28Z"/><path class="cls-1" d="M116,168.7c-2.28,2.52-5.94,4.5-10.86,4.5-8.46,0-15.42-6.84-15.42-15.6s6.96-15.66,15.42-15.66c4.8,0,8.46,1.92,10.86,4.38v-14.7h5.28v41.1h-5.28v-4.02ZM116.18,157.6c0-6-4.68-10.74-10.74-10.74s-10.56,4.74-10.56,10.74,4.56,10.74,10.56,10.74,10.74-4.68,10.74-10.74Z"/><path class="cls-1" d="M126.14,176.38l4.02-2.52c2.1,3.3,5.28,5.4,10.38,5.4,6.36,0,10.2-2.88,10.2-8.76v-2.58c-2.16,2.52-5.76,4.56-10.74,4.56-8.4,0-15.24-6.66-15.24-15.3s6.84-15.3,15.24-15.3c4.74,0,8.34,1.8,10.74,4.5v-4.02h5.22v27.78c0,7.62-5.58,13.74-15.36,13.74-6.9,0-11.46-2.82-14.46-7.5ZM129.86,157.24c0,5.88,4.56,10.5,10.44,10.5s10.62-4.5,10.62-10.5-4.62-10.5-10.62-10.5-10.44,4.62-10.44,10.5Z"/><path class="cls-1" d="M175.16,173.32c-9.42,0-15.72-6.9-15.72-15.78s6.48-15.66,15.72-15.66,15.42,6.72,15.42,15c0,1.02-.06,1.8-.18,2.4h-25.68c.66,5.52,4.56,9.3,10.56,9.3,4.98,0,8.04-2.04,10.14-5.28l4.08,2.46c-2.94,4.68-7.56,7.56-14.34,7.56ZM164.84,155.02h20.28c-.78-5.46-4.92-8.58-9.96-8.58-5.46,0-9.36,3.36-10.32,8.58Z"/><path class="cls-1" d="M198.86,163.3c.3,3.06,2.58,5.64,7.86,5.7,4.5,0,6.72-1.98,6.72-4.56,0-7.5-19.14-1.08-19.14-13.38,0-5.22,4.5-9.06,11.52-9.06s11.76,3.78,12.18,9.48h-5.34c-.18-2.4-1.62-5.16-6.66-5.16-3.78,0-6.3,1.44-6.3,4.14,0,7.38,19.38,1.38,19.38,13.2,0,6.24-5.22,9.6-12.6,9.6s-12.6-3.84-13.08-9.96h5.46Z"/></g></svg>